<?xml version="1.0" encoding="UTF-8"?>
<svg viewBox="0 0 200 200" version="1.1" xmlns="http://www.w3.org/2000/svg" width="100%" height="auto">
<path d="M0 0 C66 0 132 0 200 0 C200 66 200 132 200 200 C134 200 68 200 0 200 C0 134 0 68 0 0 Z " fill="#000000" transform="translate(0,0)"/>
<path d="M0 0 C1.6500000000000057 0 3.3000000000000114 0 5 0 C3.680000000000007 1.3200000000000003 2.3600000000000136 2.6400000000000006 1 4 C-8.900000000000006 9.939999999999998 -8.900000000000006 9.939999999999998 -19 16 C-25.930000000000007 20.455 -25.930000000000007 20.455 -33 25 C-34.650000000000006 24.67 -36.3 24.340000000000003 -38 24 C-41.3 22.349999999999994 -44.599999999999994 20.700000000000003 -48 19 C-48 17.349999999999994 -48 15.700000000000003 -48 14 C-32.16 9.379999999999995 -16.319999999999993 4.759999999999998 0 0 Z " fill="#F73C20" transform="translate(158,54)"/>
<path d="M0 0 C2.6400000000000006 0.3299999999999983 5.280000000000001 0.6599999999999966 8 1 C17.240000000000002 3.6400000000000006 26.480000000000004 6.280000000000001 36 9 C41.28 10.650000000000006 46.56 12.299999999999997 52 14 C52.495000000000005 16.474999999999994 52.495000000000005 16.474999999999994 53 19 C49.03999999999999 20.980000000000004 45.08 22.960000000000008 41 25 C39.68000000000001 24.67 38.36 24.340000000000003 37 24 C27.759999999999998 18.39 18.519999999999996 12.780000000000001 9 7 C6.030000000000001 5.019999999999996 3.0600000000000023 3.039999999999999 0 1 C0 0.6700000000000017 0 0.3400000000000034 0 0 Z " fill="#F83D20" transform="translate(35,54)"/>
<path d="M0 0 C2.3100000000000023 0 4.6200000000000045 0 7 0 C7 4.949999999999989 7 9.900000000000006 7 15 C3.3700000000000045 23.25 -0.2599999999999909 31.5 -4 40 C-4.329999999999998 40 -4.659999999999997 40 -5 40 C-5 28.44999999999999 -5 16.900000000000006 -5 5 C-3.3499999999999943 3.3499999999999943 -1.7000000000000028 1.6999999999999886 0 0 Z " fill="#FDFDFD" transform="translate(129,129)"/>
<path d="M0 0 C2.3100000000000023 0 4.6200000000000045 0 7 0 C8.650000000000006 1.6500000000000057 10.299999999999997 3.3000000000000114 12 5 C12 16.55000000000001 12 28.099999999999994 12 40 C11.010000000000005 38.68000000000001 10.019999999999996 37.360000000000014 9 36 C6.030000000000001 29.069999999999993 3.0600000000000023 22.139999999999986 0 15 C0 10.050000000000011 0 5.099999999999994 0 0 Z " fill="#FDFDFD" transform="translate(62,129)"/>
<path d="M0 0 C3.299999999999997 0 6.599999999999994 0 10 0 C10 3.6299999999999955 10 7.259999999999991 10 11 C7.030000000000001 13.474999999999994 7.030000000000001 13.474999999999994 4 16 C2.680000000000007 14.680000000000007 1.3599999999999994 13.360000000000014 0 12 C0 8.039999999999992 0 4.0800000000000125 0 0 Z " fill="#FEFEFE" transform="translate(111,133)"/>
<path d="M0 0 C3.299999999999997 0 6.599999999999994 0 10 0 C10 3.960000000000008 10 7.9199999999999875 10 12 C8.349999999999994 13.319999999999993 6.700000000000003 14.639999999999986 5 16 C3.3499999999999943 14.349999999999994 1.7000000000000028 12.699999999999989 0 11 C0 7.3700000000000045 0 3.740000000000009 0 0 Z " fill="#FEFEFE" transform="translate(77,133)"/>
<path d="M0 0 C2.969999999999999 0 5.939999999999998 0 9 0 C9 3.3000000000000114 9 6.599999999999994 9 10 C7.349999999999994 11.650000000000006 5.700000000000003 13.300000000000011 4 15 C2.680000000000007 13.680000000000007 1.3599999999999994 12.360000000000014 0 11 C0 7.3700000000000045 0 3.740000000000009 0 0 Z " fill="#FEFEFE" transform="translate(100,133)"/>
<path d="M0 0 C2.969999999999999 0 5.939999999999998 0 9 0 C9 3.6299999999999955 9 7.259999999999991 9 11 C7.349999999999994 12.319999999999993 5.700000000000003 13.639999999999986 4 15 C2.680000000000007 13.349999999999994 1.3599999999999994 11.699999999999989 0 10 C0 6.699999999999989 0 3.4000000000000057 0 0 Z " fill="#FEFEFE" transform="translate(89,133)"/>
</svg>
