<svg width="525" height="600" viewBox="0 0 525 600" fill="none" xmlns="http://www.w3.org/2000/svg">
<path d="M442.711 254.675C454.209 334.323 371.764 351.177 324.332 349.703C321.286 349.608 318.416 351.091 316.617 353.55C311.71 360.258 303.867 368.932 297.812 368.932C291.012 368.932 284.892 382.009 282.101 390.146C281.808 391 282.648 391.788 283.507 391.509C358.626 367.118 388.103 358.752 400.801 361.103C411.052 363.001 430.226 397.321 438.532 414.244C417.886 415.43 411.005 396.926 406.259 393.604C402.462 390.947 401.038 403.094 400.801 409.499C396.292 407.127 390.597 403.806 390.122 393.604C389.648 383.403 384.427 386.013 380.393 386.487C376.359 386.962 314.423 406.89 305.169 409.499C295.914 412.109 285.235 415.667 276.455 421.836C261.743 428.953 252.251 423.971 249.64 411.872C247.552 402.192 261.11 372.411 268.15 358.731C259.449 361.973 241.382 368.552 238.724 368.932C236.147 369.3 203.454 394.539 185.97 408.253C184.95 409.053 184.294 410.225 184.059 411.499C181.262 426.698 172.334 430.952 156.856 438.917C144.4 445.326 100.9 512.174 78.5318 548.261C76.9851 550.756 74.7151 552.673 72.2776 554.31C58.0697 563.847 43.5996 588.121 37.7308 600C29.3778 575.897 40.262 555.162 46.7482 547.808C43.9006 545.341 37.3353 546.78 34.4086 547.808C42.4768 520.051 70.7156 520.051 69.7664 520.051C74.987 515.544 136.211 428.004 137.634 423.971C139.047 419.97 136.723 401.262 167.494 391.005C167.982 390.842 168.467 390.619 168.9 390.34C192.873 374.933 210.857 350.094 216.893 339.514C184.887 337.314 148.236 319.47 129.072 308.008C124.941 305.538 120.56 303.387 115.777 302.846C89.5384 299.876 63.2668 316.661 52.6808 326.229C48.3144 320.156 53.2345 302.506 56.2403 294.44C45.6092 292.921 29.979 308.357 23.4928 316.265C16.4687 305.258 22.6227 285.583 26.5777 277.121C12.5295 277.501 3.00581 283.922 0 287.085C11.6277 200.494 100.569 225.677 101.565 226.827C96.8187 221.893 97.2142 215.44 98.0052 212.83C151.872 214.254 177.026 205.239 192.925 195.986C318.22 126.002 372.206 168.942 392.139 179.736C412.073 190.53 448.261 194.919 473.296 184.955C503.196 171.432 498.695 136.577 492.636 123.274C485.992 108.683 448.498 88.5179 435.209 63.0154C421.921 37.5129 433.5 6.50012 448.895 2.17754C463.562 -1.94096 474.037 2.85041 482.076 10.1115C487.436 14.9524 502.484 18.4148 508.773 20.6685C515.061 22.9223 525.502 25.8877 524.909 27.667C524.316 29.4463 514.249 29.2088 512.688 29.2088C509.485 29.2088 505.688 29.6833 509.485 31.4626C513.937 33.2682 520.657 35.8924 523.875 37.6198C524.294 37.8443 524.207 38.4293 523.749 38.5526C501.912 44.4295 482.414 32.3029 467.957 46.2898C453.244 60.524 484.568 71.4369 500.704 88.5179C516.841 105.599 533.452 126.001 520.163 172.5C509.875 208.497 466.758 239.103 444.486 251.075C443.205 251.764 442.503 253.235 442.711 254.675Z" fill="#8a47d4"/>
</svg>
