<?xml version="1.0" encoding="utf-8"?>
<svg xmlns="http://www.w3.org/2000/svg" fill="none" height="48" viewBox="0 0 48 48" width="48">
<g clip-path="url(#clip0_30844_1388)">
<g clip-path="url(#clip1_30844_1388)">
<path d="M13.3333 31.0281V38.6666H18.695V31.3593C18.695 30.6483 18.9774 29.9664 19.4802 29.4637C19.9829 28.9609 20.6648 28.6785 21.3758 28.6785H26.8733C28.1434 28.6785 29.4011 28.4283 30.5746 27.9422C31.748 27.4561 32.8143 26.7437 33.7124 25.8455C34.6105 24.9473 35.3228 23.8811 35.8088 22.7076C36.2948 21.5341 36.5449 20.2764 36.5448 19.0063C36.545 17.736 36.295 16.4782 35.809 15.3047C35.3231 14.1311 34.6107 13.0648 33.7126 12.1665C32.8145 11.2683 31.7483 10.5558 30.5748 10.0696C29.4013 9.58349 28.1435 9.33325 26.8733 9.33325H13.3333V18.8814H18.695V14.3791H26.5105C27.7241 14.3791 28.888 14.8611 29.7463 15.7192C30.6045 16.5773 31.0868 17.7412 31.087 18.9548C31.087 20.1686 30.6048 21.3326 29.7465 22.1909C28.8883 23.0492 27.7242 23.5313 26.5105 23.5313H20.8279C19.8434 23.5309 18.8685 23.7246 17.9589 24.1012C17.0493 24.4779 16.2228 25.0301 15.5268 25.7263C14.8307 26.4226 14.2788 27.2492 13.9024 28.1589C13.526 29.0686 13.3326 30.0436 13.3333 31.0281Z" fill="url(#paint0_radial_30844_1388)"/>
<path d="M21.3743 28.6777C20.3183 28.6776 19.2727 28.8856 18.297 29.2896C17.3214 29.6937 16.435 30.286 15.6883 31.0327C14.9416 31.7794 14.3493 32.6658 13.9452 33.6414C13.5411 34.6171 13.3332 35.6627 13.3333 36.7187V38.6658H18.695V31.3586C18.695 30.6478 18.9772 29.9661 19.4796 29.4634C19.9821 28.9607 20.6636 28.6781 21.3743 28.6777V28.6777Z" fill="url(#paint1_linear_30844_1388)"/>
</g>
</g>
<defs>
<radialGradient cx="0" cy="0" gradientTransform="translate(36.6271 5.2606) scale(29.5235 29.5236)" gradientUnits="userSpaceOnUse" id="paint0_radial_30844_1388" r="1">
<stop stop-color="#A995FF"/>
<stop offset="1" stop-color="#6652F5"/>
</radialGradient>
<linearGradient gradientUnits="userSpaceOnUse" id="paint1_linear_30844_1388" x1="17.3538" x2="17.3538" y1="37.2211" y2="25.9969">
<stop stop-color="#6D4BFD"/>
<stop offset="1" stop-color="#1C0554"/>
</linearGradient>
<clipPath id="clip0_30844_1388">
<rect fill="white" height="48" width="48"/>
</clipPath>
<clipPath id="clip1_30844_1388">
<rect fill="white" height="48" width="48"/>
</clipPath>
</defs>
</svg>
